HIERARCHY
ROOT Hips
{
	OFFSET 0.00 0.00 0.00
	CHANNELS 6 Xposition Yposition Zposition Xrotation Yrotation Zrotation
	JOINT Spine
	{
		OFFSET 0.00000 1.15266 1.72900
		CHANNELS 3 Xrotation Yrotation Zrotation
		JOINT Spine1
		{
			OFFSET 0.00000 0.40032 2.27031
			CHANNELS 3 Xrotation Yrotation Zrotation
			JOINT Spine2
			{
				OFFSET 0.00000 0.20092 2.29656
				CHANNELS 3 Xrotation Yrotation Zrotation
				JOINT Spine3
				{
					OFFSET 0.00000 0.00000 2.30533
					CHANNELS 3 Xrotation Yrotation Zrotation
					JOINT Neck
					{
						OFFSET 0.00000 -0.86449 6.05149
						CHANNELS 3 Xrotation Yrotation Zrotation
						JOINT Head
						{
							OFFSET 0.00000 -0.55043 3.12167
							CHANNELS 3 Xrotation Yrotation Zrotation
							End Site
							{
								OFFSET 0.00000 0.00000 3.73175
							}
						}
					}
					JOINT RightShoulder
					{
						OFFSET -0.78828 -1.31380 4.25672
						CHANNELS 3 Xrotation Yrotation Zrotation
						JOINT RightArm
						{
							OFFSET -3.91513 0.00000 0.00000
							CHANNELS 3 Xrotation Yrotation Zrotation
							JOINT RightForeArm
							{
								OFFSET -6.91491 0.00000 0.00000
								CHANNELS 3 Xrotation Yrotation Zrotation
								JOINT RightHand
								{
									OFFSET -6.09622 0.00000 0.00000
									CHANNELS 3 Xrotation Yrotation Zrotation
									JOINT RightHandEnd
									{
										OFFSET -1.74995 0.00000 0.00000
										CHANNELS 3 Xrotation Yrotation Zrotation
										End Site
										{
											OFFSET -1.74995 0.00000 0.00000
										}
									}
									JOINT RightHandThumb1
									{
										OFFSET -0.69998 -1.16663 -0.46665
										CHANNELS 3 Yrotation Xrotation Zrotation
										End Site
										{
											OFFSET -1.69032 -0.45292 0.00000
										}
									}
								}
							}
						}
					}
					JOINT LeftShoulder
					{
						OFFSET 0.78828 -1.31380 4.25672
						CHANNELS 3 Xrotation Yrotation Zrotation
						JOINT LeftArm
						{
							OFFSET 3.91513 0.00000 0.00000
							CHANNELS 3 Xrotation Yrotation Zrotation
							JOINT LeftForeArm
							{
								OFFSET 6.91491 0.00000 0.00000
								CHANNELS 3 Xrotation Yrotation Zrotation
								JOINT LeftHand
								{
									OFFSET 6.09622 0.00000 0.00000
									CHANNELS 3 Xrotation Yrotation Zrotation
									JOINT LeftHandEnd
									{
										OFFSET 1.74995 0.00000 0.00000
										CHANNELS 3 Xrotation Yrotation Zrotation
										End Site
										{
											OFFSET 1.74995 0.00000 0.00000
										}
									}
									JOINT LeftHandThumb1
									{
										OFFSET 0.69998 -1.16663 -0.46665
										CHANNELS 3 Yrotation Xrotation Zrotation
										End Site
										{
											OFFSET 1.69032 -0.45292 0.00000
										}
									}
								}
							}
						}
					}
				}
			}
		}
	}
	JOINT RightUpLeg
	{
		OFFSET -2.33857 0.00000 -0.68318
		CHANNELS 3 Xrotation Yrotation Zrotation
		JOINT RightLeg
		{
			OFFSET 0.00000 0.00000 -10.74496
			CHANNELS 3 Xrotation Yrotation Zrotation
			JOINT RightFoot
			{
				OFFSET 0.00000 0.00000 -10.93085
				CHANNELS 3 Xrotation Yrotation Zrotation
				JOINT RightToeBase
				{
					OFFSET 0.00000 -4.08727 -1.48765
					CHANNELS 3 Xrotation Yrotation Zrotation
					End Site
					{
						OFFSET 0.00000 -1.89187 -0.00000
					}
				}
			}
		}
	}
	JOINT LeftUpLeg
	{
		OFFSET 2.33857 0.00000 -0.68318
		CHANNELS 3 Xrotation Yrotation Zrotation
		JOINT LeftLeg
		{
			OFFSET 0.00000 0.00000 -10.74496
			CHANNELS 3 Xrotation Yrotation Zrotation
			JOINT LeftFoot
			{
				OFFSET 0.00000 0.00000 -10.93085
				CHANNELS 3 Xrotation Yrotation Zrotation
				JOINT LeftToeBase
				{
					OFFSET 0.00000 -4.08727 -1.48765
					CHANNELS 3 Xrotation Yrotation Zrotation
					End Site
					{
						OFFSET 0.00000 -1.89187 -0.00000
					}
				}
			}
		}
	}
}
MOTION
Frames: 13
Frame Time:	0.04
 -11.6527 1.9459 22.5801 -5.6453 3.4595 161.9188 -5.0513 0.3473 0.6688 -2.7960 -1.3419 -0.1055 6.8949 -7.2645 7.4849 -0.1808 -0.1186 2.2104 -6.0695 -5.1993 -2.6449 15.8252 -1.9853 -9.6131 -12.8426 0.8642 -3.8439 -27.5642 -4.0841 36.5562 -0.0001 0.0001 124.5128 -13.9169 7.9912 16.6406 0.0000 0.0000 0.0000 0.0000 -0.0000 0.0000 -12.4635 2.3002 3.9064 -20.7221 -8.0548 -32.2824 -0.0000 0.0000 5.1444 0.0659 -3.7536 8.4493 0.0000 -0.0000 -0.0000 -0.0000 0.0000 -0.0000 -18.0801 28.3951 6.4731 14.1964 0.0000 0.0000 -3.4452 -27.8688 15.8911 4.0237 0.0000 0.0000 5.3415 -22.9181 15.7262 -0.7752 0.0000 -0.0000 -6.7898 26.8018 10.4533 1.5816 0.0000 0.0000
 -11.6527 1.9459 22.5801 -5.6453 3.4595 161.9188 -5.0513 0.3473 0.6688 -2.7960 -1.3419 -0.1055 6.8949 -7.2645 7.4849 -0.1808 -0.1186 2.2104 -6.0695 -5.1993 -2.6449 15.8252 -1.9853 -9.6131 -12.8426 0.8642 -3.8439 -27.5642 -4.0841 36.5562 -0.0001 0.0001 124.5128 -13.9169 7.9912 16.6406 0.0000 0.0000 0.0000 0.0000 -0.0000 0.0000 -12.4635 2.3002 3.9064 -20.7221 -8.0548 -32.2824 -0.0000 0.0000 5.1444 0.0659 -3.7536 8.4493 0.0000 -0.0000 -0.0000 -0.0000 0.0000 -0.0000 -18.0801 28.3951 6.4731 14.1964 0.0000 0.0000 -3.4452 -27.8688 15.8911 4.0237 0.0000 0.0000 5.3415 -22.9181 15.7262 -0.7752 0.0000 -0.0000 -6.7898 26.8018 10.4533 1.5816 0.0000 0.0000
 -11.5881 1.8987 22.5666 -5.3526 3.2372 161.5591 -4.6295 -0.1336 0.6333 -2.3651 -1.9394 -0.1470 6.2460 -6.3283 8.5002 -0.1558 -0.0851 2.4173 -5.6363 -4.9924 -2.5699 15.7462 -2.1746 -9.5359 -12.9301 2.1676 -3.4443 -26.3471 -4.7130 35.1611 -0.0001 0.0001 125.1570 -12.7828 8.0126 16.7154 -0.0000 -0.0000 -0.0000 -0.0000 0.0000 0.0000 -12.4790 1.7873 3.9497 -21.2199 -7.8215 -32.4605 -0.0000 0.0000 5.0132 -0.2913 -3.8263 8.3119 -0.0000 0.0000 0.0000 0.0000 0.0000 0.0000 -18.8897 27.9743 6.7439 15.8217 0.0000 0.0000 -3.9661 -27.6929 16.4888 3.9754 0.0000 0.0000 5.4364 -23.3067 16.8791 -0.0262 0.0000 -0.0000 -6.7035 27.0824 9.5740 1.5212 0.0000 0.0000
 -11.5289 1.8794 22.5388 -5.1857 3.1572 161.8579 -4.0063 -0.2016 0.5622 -1.8186 -2.1531 -0.1644 5.0076 -6.0290 8.7336 -0.3257 -0.1960 2.4608 -4.9200 -5.3174 -2.3454 15.1801 -2.0294 -9.4481 -12.5161 3.1221 -3.4918 -26.2961 -5.0283 34.5360 -0.0001 0.0001 125.8017 -12.5652 8.0535 16.1608 0.0000 0.0000 0.0000 0.0000 -0.0000 0.0000 -12.2630 1.2196 3.9826 -21.4233 -8.4367 -31.6515 -0.0000 0.0000 4.7373 -0.7067 -4.1164 8.9529 0.0000 -0.0000 0.0000 -0.0000 -0.0000 0.0000 -19.7365 27.6640 7.8012 18.0286 0.0000 0.0000 -5.4953 -27.4441 15.4965 3.9174 0.0000 0.0000 5.2978 -23.5664 16.5614 0.2964 0.0000 0.0000 -6.6118 26.9220 9.3035 1.5795 0.0000 0.0000
 -11.5558 1.9273 22.5110 -4.1860 4.3144 162.3895 -3.4355 0.1380 0.5473 -1.3483 -2.3592 -0.1266 4.2342 -4.6359 9.1605 -0.2480 -0.4869 2.6832 -4.4526 -6.6700 -2.6842 15.4170 -1.3827 -10.0301 -13.0645 4.6839 -3.9468 -26.3573 -5.3819 33.2019 -0.0001 0.0001 126.0639 -13.4130 9.0771 15.9977 -0.0000 0.0000 0.0000 0.0000 -0.0000 -0.0000 -11.7062 -0.2778 2.8251 -21.3208 -7.6283 -29.8452 -0.0000 0.0000 4.2190 -0.4714 -4.8556 8.4304 -0.0000 -0.0000 0.0000 -0.0000 0.0000 -0.0000 -20.2799 29.5557 6.7560 20.3228 0.0000 0.0000 -5.8586 -27.2001 17.3431 3.7592 0.0000 0.0000 5.9355 -21.9777 15.6709 -0.2630 0.0000 -0.0000 -6.4885 26.7465 9.7562 1.7810 0.0000 0.0000
 -11.5809 2.0243 22.4447 -2.4202 5.5739 163.9740 -2.4653 0.4396 0.4696 -0.8668 -2.4387 -0.1375 3.2213 -3.7684 8.5214 -0.2570 -0.6630 2.5099 -1.7575 -8.3588 -2.5907 15.9140 -0.5399 -10.6446 -12.1758 6.0686 -3.8070 -25.8231 -6.3038 32.5819 -0.0001 0.0001 126.6824 -13.0472 9.1109 15.9958 -0.0000 -0.0000 -0.0000 0.0000 -0.0000 -0.0000 -10.4027 -1.5525 1.7545 -23.1805 -3.8640 -28.6362 -0.0000 0.0000 4.6854 0.2405 -5.4404 9.1991 -0.0000 -0.0000 -0.0000 0.0000 -0.0000 -0.0000 -19.6810 31.0663 10.2339 23.6892 0.0000 0.0000 -10.0591 -26.6972 12.8501 3.3957 0.0000 0.0000 6.3853 -20.3668 15.0257 0.1677 0.0000 0.0000 -6.0972 26.9394 7.9150 2.0901 0.0000 0.0000
 -11.4053 2.1379 22.2806 -0.6520 7.8583 163.9355 -3.4536 1.2294 0.5592 -1.4674 -1.9837 -0.0382 4.7895 -3.1933 8.2218 0.6425 -1.1325 2.7633 1.1362 -9.7957 -2.1728 17.3282 -0.0248 -10.6013 -11.7351 5.3227 -3.4365 -21.1429 -8.4038 35.7137 -0.0001 0.0001 127.8747 -10.5417 6.9117 15.0775 -0.0000 0.0000 -0.0000 -0.0000 0.0000 0.0000 -10.6434 -2.3345 1.1274 -23.2400 0.6100 -28.2951 -0.0000 0.0000 5.6713 1.4836 -5.0842 8.3103 -0.0000 -0.0000 0.0000 -0.0000 0.0000 0.0000 -22.5284 31.8552 17.2930 31.0190 0.0000 0.0000 -16.2111 -26.7835 7.9412 3.2276 0.0000 0.0000 7.7414 -18.0458 13.9055 0.0236 0.0000 0.0000 -6.3163 27.8010 9.3509 2.7349 0.0000 0.0000
 -10.7954 2.0155 21.8415 2.9877 8.2204 163.9034 0.0838 1.3396 0.4112 -0.0145 -2.0677 0.0641 4.3640 -1.8569 8.6313 0.3554 -1.6376 2.9348 -0.3352 -7.1160 -1.8861 15.7979 -0.8481 -8.1877 -10.7589 6.0683 -4.0097 -19.5618 -10.7624 38.8747 -0.0001 0.0001 122.6360 -10.3750 8.3570 16.6566 -0.0000 -0.0000 -0.0000 -0.0000 -0.0000 0.0000 -9.8452 -6.3176 1.8637 -24.8807 3.7679 -29.7046 -0.0000 0.0000 7.7183 0.1554 -5.8476 9.0759 -0.0000 0.0000 0.0000 0.0000 0.0000 -0.0000 -25.4825 31.5762 18.0758 42.3787 0.0000 0.0000 -20.9575 -25.8897 10.5595 3.1472 0.0000 0.0000 6.4214 -20.3032 17.4807 9.1249 0.0000 0.0000 -6.1958 31.4433 2.7847 4.6858 0.0000 0.0000
 -9.3045 1.7802 22.1351 3.5992 7.3107 165.4099 1.8200 -2.0261 -0.0632 0.3952 -2.0708 0.1464 3.0827 0.3117 10.0393 0.2847 0.0314 1.9924 0.0594 -0.1415 0.4018 13.2823 -2.2476 -3.5747 -10.1098 13.4306 -0.8094 -19.3282 -16.6091 34.8453 -0.0001 0.0001 118.8726 -11.7366 8.9990 15.7307 0.0000 0.0000 -0.0000 -0.0000 -0.0000 0.0000 -8.0940 -12.6140 1.7893 -19.5043 -0.2691 -29.1109 -0.0000 0.0000 5.4486 -2.6019 -13.5495 4.1066 -0.0000 0.0000 -0.0000 0.0000 0.0000 -0.0000 -24.5873 27.4820 14.9539 47.1371 0.0000 0.0000 -23.4805 -25.6778 11.2521 4.8357 0.0000 0.0000 1.6220 -25.2891 17.5808 14.5587 0.0000 0.0000 10.7130 23.7217 -3.8509 0.0718 0.0000 0.0000
 -7.3597 1.3779 22.9791 3.3254 9.3381 170.1407 1.9092 -1.9307 -0.2745 0.4321 -0.7239 0.2813 2.4019 2.3495 9.9120 0.4470 1.2384 1.0099 0.7500 2.9473 1.4841 10.8094 -2.5017 -1.3452 -10.2077 18.1345 -0.2789 -18.8414 -16.1158 33.6380 -0.0001 0.0001 115.8383 -11.8942 10.3328 14.9317 -0.0000 -0.0000 0.0000 0.0000 -0.0000 0.0000 -7.0704 -16.9383 3.4048 -20.8694 -2.1773 -34.3933 -0.0000 0.0000 4.1305 -5.1559 -21.2942 0.5701 -0.0000 0.0000 0.0000 -0.0000 -0.0000 -0.0000 -21.2733 25.3361 9.2467 46.5416 0.0000 0.0000 -23.9884 -23.1522 9.9766 6.5172 0.0000 0.0000 -4.2172 -25.7378 11.2481 11.1855 0.0000 0.0000 27.1980 3.4281 -9.8321 -3.5334 0.0000 -0.0000
 -5.5163 0.8788 23.4936 2.9117 9.6173 172.5371 2.6312 -1.5800 -0.3286 0.6602 0.4084 0.3609 2.4284 3.0187 9.8701 0.2798 1.5867 0.8310 -0.5194 3.6551 1.6265 9.0858 -2.5777 -0.7433 -9.8703 20.2279 -0.3950 -20.4510 -15.5898 33.6030 -0.0001 0.0001 113.1233 -11.9173 10.0654 13.8979 0.0000 -0.0000 -0.0000 0.0000 -0.0000 0.0000 -6.6324 -19.9149 3.0081 -23.1448 -2.8031 -35.8005 -0.0000 0.0000 4.4782 -5.1216 -19.4852 0.5632 0.0000 -0.0000 0.0000 0.0000 0.0000 0.0000 -20.0126 20.4761 6.5815 46.1910 0.0000 0.0000 -24.5745 -20.0188 8.0400 7.3557 0.0000 0.0000 -7.8053 -30.3855 10.5496 11.5568 0.0000 0.0000 23.0333 1.2671 -9.4218 -3.6229 0.0000 -0.0000
 -4.0435 0.3805 23.8278 1.9288 9.1848 172.5032 3.3191 -1.3276 -0.2306 0.9381 0.7737 0.3891 2.1051 3.2662 10.2684 -0.1919 1.6940 0.8168 -2.5489 3.7294 1.6534 7.8962 -2.5348 -1.0244 -9.9128 20.6597 -0.0747 -22.8812 -15.3962 33.3551 -0.0001 0.0001 109.9163 -13.7524 10.1798 14.1607 -0.0000 -0.0000 -0.0000 -0.0000 -0.0000 0.0000 -6.5094 -20.0372 2.7880 -23.5719 -4.8838 -35.7760 -0.0000 0.0000 4.3599 -5.3645 -19.5004 0.5574 -0.0000 -0.0000 -0.0000 0.0000 0.0000 0.0000 -20.6157 15.7966 4.8326 44.8459 0.0000 0.0000 -23.4091 -17.3047 8.2779 7.8549 0.0000 0.0000 -10.7014 -34.3437 9.8177 12.5099 0.0000 0.0000 22.5234 -0.0668 -8.0152 -3.8326 0.0000 -0.0000
 -2.9765 -0.0213 24.1516 0.7989 9.0338 170.7792 3.5171 -1.3916 -0.2099 1.0175 0.8942 0.4304 1.7063 3.4600 11.0318 -0.5780 1.8825 0.8766 -3.8894 4.3360 1.4920 6.8080 -2.4422 -1.3736 -8.9625 21.4654 0.0387 -25.6018 -15.0704 31.9599 -0.0001 0.0001 105.9703 -16.4109 11.0905 14.2444 0.0000 0.0000 -0.0000 0.0000 -0.0000 0.0000 -6.2961 -18.7523 2.6983 -23.7451 -4.3600 -34.3526 -0.0000 0.0000 4.4891 -6.1870 -19.8027 -0.2150 -0.0000 -0.0000 -0.0000 0.0000 0.0000 0.0000 -21.1465 12.4763 3.5120 41.5643 0.0000 0.0000 -20.6132 -14.1881 10.0380 7.7694 0.0000 0.0000 -10.7941 -35.4938 10.4323 11.9192 0.0000 0.0000 22.1111 0.0126 -7.6856 -3.8457 0.0000 -0.0000
